<svg width="22" height="22" viewBox="0 0 22 22" fill="none" xmlns="http://www.w3.org/2000/svg">
<path fill-rule="evenodd" clip-rule="evenodd" d="M10.714 3.20904C10.9058 3.12167 11.1319 3.16403 11.2791 3.31494C11.4263 3.46586 11.463 3.6929 11.3709 3.88253L2.97641 21.165C2.85576 21.4134 2.5566 21.5169 2.30821 21.3963C2.29305 21.3889 2.27843 21.3809 2.26436 21.3723C2.24303 21.3854 2.22046 21.397 2.19669 21.4071C1.94234 21.5146 1.64899 21.3956 1.54147 21.1412C0.423291 18.4961 -0.0925384 14.768 1.53828 10.7245C1.9698 9.65462 2.78094 8.65574 3.71569 7.76987C4.65497 6.87969 5.74734 6.07726 6.77895 5.40541C7.81199 4.73262 8.79355 4.18468 9.51641 3.80505C9.87816 3.61506 10.1759 3.4668 10.384 3.36571C10.488 3.31516 10.5697 3.27637 10.6257 3.25004L10.6902 3.21996L10.7073 3.21207L10.714 3.20904C10.7141 3.20898 10.714 3.20904 10.9212 3.66408L10.714 3.20904ZM9.82726 4.77182C9.14175 5.13632 8.25344 5.6385 7.32468 6.24337C6.32324 6.89557 5.28419 7.66111 4.40356 8.49569C3.5184 9.33458 2.82115 10.2173 2.46569 11.0986C1.03939 14.6349 1.38032 17.8971 2.28347 20.3028L9.82726 4.77182Z" fill="#499A18"/>
<path fill-rule="evenodd" clip-rule="evenodd" d="M20.941 2.54099C20.6602 3.04289 20.2618 3.68941 19.7341 4.49547C17.6325 7.70552 16.6631 9.42093 16.2975 10.3133C16.2462 10.4386 16.2094 10.5416 16.1836 10.6256C16.1876 10.6248 16.1918 10.6239 16.196 10.6229C16.277 10.6053 16.3818 10.5825 16.4813 10.5696C16.5821 10.5565 16.7455 10.5428 16.9109 10.594C17.1158 10.6574 17.2942 10.8125 17.365 11.0552C17.4223 11.2514 17.393 11.4537 17.35 11.621C17.3041 11.7996 17.2238 12.0071 17.112 12.2468C16.8879 12.7275 16.5081 13.3991 15.9207 14.3338C13.4998 18.1859 10.0029 19.9749 7.13244 20.7993C5.69742 21.2115 4.41327 21.3846 3.48657 21.4548C3.02282 21.49 2.64743 21.4994 2.38598 21.5C2.25522 21.5003 2.15286 21.4983 2.08208 21.4962C2.04669 21.4952 2.01918 21.4941 1.99996 21.4933L1.9774 21.4922L1.97086 21.4919L1.9688 21.4918C1.96852 21.4918 1.96754 21.4917 1.99647 20.9925C1.61904 20.6646 1.61915 20.6645 1.61935 20.6642L1.90636 20.3347C2.09285 20.1208 2.36521 19.8089 2.70881 19.4166C3.39601 18.6319 4.36829 17.5253 5.50876 16.2374C7.78927 13.6623 10.7441 10.3605 13.4376 7.4585C16.1183 4.5703 18.5741 2.04052 19.8412 1.04014C20.0029 0.912479 20.1538 0.802795 20.2896 0.717986C20.4163 0.638876 20.5657 0.558301 20.7176 0.521724C20.7949 0.503112 20.9109 0.486299 21.0401 0.516816C21.1869 0.551497 21.322 0.641512 21.4082 0.783746C21.4846 0.909609 21.4994 1.03794 21.5 1.12491C21.5006 1.21531 21.486 1.30205 21.4679 1.37742C21.3999 1.66074 21.2133 2.05412 20.941 2.54099ZM1.99647 20.9925L1.61935 20.6642C1.49431 20.8081 1.46168 21.011 1.5357 21.1867C1.60973 21.3624 1.77722 21.4807 1.96754 21.4917L1.99647 20.9925ZM3.1091 20.4777C3.21612 20.3553 3.33371 20.2209 3.46111 20.0754C4.14734 19.2918 5.11838 18.1866 6.2574 16.9004C8.5359 14.3275 11.4848 11.0324 14.1705 8.13878C16.5302 5.59647 18.6606 3.39288 19.9562 2.24971C19.6988 2.69535 19.3496 3.25696 18.8974 3.94773C16.8017 7.14892 15.7793 8.94035 15.3722 9.93427C15.2691 10.186 15.1976 10.4047 15.1609 10.5939C15.1257 10.7749 15.1118 10.9793 15.1775 11.1722C15.2543 11.3981 15.4201 11.5502 15.6188 11.6207C15.7867 11.6802 15.9531 11.6732 16.063 11.6618C16.1423 11.6535 16.2226 11.639 16.2936 11.6246C16.2695 11.6833 16.2405 11.7497 16.2057 11.8243C16.0083 12.2476 15.6549 12.8773 15.074 13.8017C12.8215 17.3859 9.56805 19.0593 6.85638 19.8382C5.50036 20.2277 4.28553 20.3914 3.41102 20.4577C3.30521 20.4657 3.20446 20.4723 3.1091 20.4777Z" fill="#499A18"/>
</svg>
